<?xml version="1.0" standalone="no"?>
<!DOCTYPE svg PUBLIC "-//W3C//DTD SVG 20010904//EN"
 "http://www.w3.org/TR/2001/REC-SVG-20010904/DTD/svg10.dtd">
<svg version="1.0" xmlns="http://www.w3.org/2000/svg"
 width="256.000000pt" height="256.000000pt" viewBox="0 0 256.000000 256.000000"
 preserveAspectRatio="xMidYMid meet">
<metadata>
Created by potrace 1.11, written by Peter Selinger 2001-2013
</metadata>
<g transform="translate(0.000000,256.000000) scale(0.100000,-0.100000)"
fill="#000000" stroke="none">
<path d="M2170 2550 c-85 -11 -138 -20 -215 -36 -143 -29 -352 -106 -510 -190
-71 -37 -202 -118 -230 -141 -5 -5 -26 -19 -45 -33 -116 -79 -356 -303 -472
-440 -134 -159 -149 -181 -143 -209 7 -34 -37 -91 -70 -91 -38 0 -229 -306
-392 -630 -46 -91 -86 -179 -89 -197 -8 -44 21 -60 121 -68 98 -7 141 -15 127
-24 -21 -13 -81 -140 -87 -185 -15 -96 34 -153 125 -143 52 6 123 34 171 68
32 22 42 20 44 -9 1 -9 5 -55 9 -102 9 -100 24 -125 70 -116 37 8 323 151 471
235 107 62 412 260 437 284 7 7 29 24 48 37 19 13 37 27 40 30 3 3 30 25 60
50 144 117 330 303 435 432 84 105 198 277 257 389 99 187 182 438 204 614 3
22 9 66 13 98 13 96 8 354 -7 369 -15 15 -276 20 -372 8z"/>
</g>
</svg>
